<svg width="24" height="24" viewBox="0 0 24 24" fill="none" xmlns="http://www.w3.org/2000/svg">
<path d="M7.5 21.5625C8.22487 21.5625 8.8125 20.9749 8.8125 20.25C8.8125 19.5251 8.22487 18.9375 7.5 18.9375C6.77513 18.9375 6.1875 19.5251 6.1875 20.25C6.1875 20.9749 6.77513 21.5625 7.5 21.5625Z" fill="#222222"/>
<path d="M17.25 21.5625C17.9749 21.5625 18.5625 20.9749 18.5625 20.25C18.5625 19.5251 17.9749 18.9375 17.25 18.9375C16.5251 18.9375 15.9375 19.5251 15.9375 20.25C15.9375 20.9749 16.5251 21.5625 17.25 21.5625Z" fill="#222222"/>
<path d="M3.96562 6.75H20.7844L18.3094 15.4125C18.2211 15.7269 18.032 16.0036 17.7711 16.2C17.5103 16.3965 17.1922 16.5019 16.8656 16.5H7.88437C7.55783 16.5019 7.2397 16.3965 6.97886 16.2C6.71803 16.0036 6.52893 15.7269 6.44062 15.4125L3.04688 3.54375C3.00203 3.38696 2.9073 3.24905 2.77704 3.15093C2.64677 3.05282 2.48808 2.99983 2.325 3H0.75" stroke="#222222" stroke-width="1.5" stroke-linecap="round" stroke-linejoin="round"/>
</svg>
