<svg width="80" height="26" viewBox="0 0 80 26" fill="none" xmlns="http://www.w3.org/2000/svg">
<path d="M1.55568 21.4393H7.57385V19.4538C7.57385 18.4098 8.37223 17.8162 9.41609 17.8162C10.4601 17.8162 11.2585 18.4098 11.2585 19.4538V21.4393H17.2561C18.1362 21.4393 18.8323 22.1355 18.8323 22.9747C18.8323 23.7934 18.1363 24.5098 17.2561 24.5098H1.55568C0.716555 24.5098 0 23.7936 0 22.9747C0.000165639 22.1355 0.716555 21.4393 1.55568 21.4393ZM5.44506 6.41455H13.3875C16.335 6.41455 18.3205 8.91173 18.3205 11.8594C18.3205 14.8072 16.335 17.3045 13.3875 17.3045H5.44506C2.49751 17.3045 0.511991 14.8072 0.511991 11.8594C0.511991 8.91173 2.49751 6.41455 5.44506 6.41455ZM6.46854 14.275H12.3638C13.7557 14.275 14.677 13.2513 14.677 11.8594C14.677 10.4676 13.7557 9.44409 12.3638 9.44409H6.46854C5.07651 9.44409 4.15539 10.4676 4.15539 11.8594C4.15539 13.2513 5.07651 14.275 6.46854 14.275Z" fill="#FF4D6A"/>
<path d="M21.7604 12.6576H37.993C38.73 12.6576 39.3031 13.2512 39.3031 13.9882C39.3031 14.6842 38.73 15.2777 37.993 15.2777H21.7604C21.044 15.2777 20.4709 14.6842 20.4709 13.9882C20.4709 13.2512 21.044 12.6576 21.7604 12.6576ZM24.8718 21.7462V22.606H37.8088C38.4843 22.606 38.9961 23.1382 38.9961 23.8137C38.9961 24.4892 38.4843 25.0214 37.8088 25.0214H22.3746C21.6991 25.0214 21.1873 24.4892 21.1873 23.8137V20.6613C21.1873 20.0676 21.6582 19.5763 22.2517 19.5763H34.902V18.7372H22.2108C21.5762 18.7372 21.0849 18.2254 21.0849 17.5908C21.0849 16.9563 21.5762 16.4446 22.2108 16.4446H37.4608C38.0954 16.4446 38.5867 16.9563 38.5867 17.5908V20.6613C38.5867 21.2549 38.1158 21.746 37.5221 21.746H24.8718V21.7462ZM24.8718 8.95257H37.5221C38.2387 8.95257 38.7912 9.50531 38.7912 10.2217C38.7912 10.9383 38.2387 11.4908 37.5221 11.4908H22.4564C21.74 11.4908 21.1873 10.9383 21.1873 10.2013V7.54033C21.1873 6.51668 22.006 5.80029 23.0295 5.80029C24.0532 5.80029 24.8718 6.51668 24.8718 7.54033V8.95257Z" fill="#FF4D6A"/>
<path d="M40.9423 22.6677C40.9423 21.8078 41.6178 21.1323 42.4776 21.1323H44.238V15.2369C44.238 14.2134 45.0362 13.5174 46.0599 13.5174C47.0834 13.5174 47.8816 14.2134 47.8816 15.2369V20.9891C49.4783 20.8867 51.0135 20.7434 52.5283 20.4772C52.6512 20.4569 52.733 20.4363 52.8354 20.4363C53.695 20.4363 54.3707 21.1118 54.3707 21.9715C54.3707 22.7699 53.8588 23.3431 53.0197 23.4864C49.9082 24.0186 46.2442 24.2026 42.4776 24.2026C41.6179 24.2026 40.9423 23.5272 40.9423 22.6677ZM51.6684 6.61905C52.4463 6.61905 53.0808 7.25361 53.0808 8.03145V9.23913C53.0808 11.9617 52.9375 15.5644 52.4872 17.6317C52.2826 18.5736 51.4842 18.9623 50.6859 18.9623C49.6215 18.9623 48.9051 18.2254 48.9051 17.3043C48.9051 17.1201 48.9254 16.9152 48.9869 16.6288C49.2733 15.3187 49.4576 11.5932 49.4576 9.64842H43.0098C42.191 9.64842 41.5361 8.97294 41.5361 8.13365C41.5361 7.29436 42.191 6.61872 43.0098 6.61872H51.6684V6.61905ZM54.8823 7.64253C54.8823 6.59867 55.7011 5.80029 56.7247 5.80029C57.7482 5.80029 58.567 6.59867 58.567 7.64253V13.2922H59.5495C60.3887 13.2922 61.0848 13.9676 61.0848 14.8275C61.0848 15.6873 60.3888 16.3628 59.5495 16.3628H58.567V23.3839C58.567 24.4483 57.7482 25.2263 56.7247 25.2263C55.7011 25.2263 54.8823 24.4483 54.8823 23.3839V7.64253Z" fill="#FF4D6A"/>
<path d="M61.8228 10.4675C61.8228 7.43797 64.3201 6.00519 67.3906 6.00519C70.461 6.00519 72.9787 7.43797 72.9787 10.4675V11.2657C72.9787 14.2953 70.461 15.7077 67.3906 15.7077C64.3201 15.7077 61.8228 14.2953 61.8228 11.2657V10.4675ZM66.3671 21.8487V22.6468H78.8129C79.4883 22.6468 80 23.1586 80 23.8341C80 24.5096 79.4883 25.0214 78.8129 25.0214H63.8697C63.1942 25.0214 62.6826 24.5096 62.6826 23.8341V20.7227C62.6826 20.1087 63.1942 19.5969 63.8084 19.5969H75.9061V18.8599H63.747C63.092 18.8599 62.5802 18.3483 62.5802 17.6932C62.5802 17.0381 63.092 16.5264 63.747 16.5264H78.4238C79.0789 16.5264 79.5905 17.0381 79.5905 17.6932V20.7227C79.5905 21.3573 79.0789 21.8486 78.4647 21.8486H66.3671V21.8487ZM65.4663 11.3681C65.4663 12.4325 66.408 12.9852 67.4109 12.9852C68.4139 12.9852 69.3352 12.4325 69.3352 11.3681V10.3651C69.3352 9.30074 68.4139 8.72747 67.4109 8.72747C66.408 8.72747 65.4663 9.30074 65.4663 10.3651V11.3681ZM75.9059 7.64253C75.9059 6.59867 76.7247 5.80029 77.7481 5.80029C78.7718 5.80029 79.5904 6.59867 79.5904 7.64253V14.1725C79.5904 15.2369 78.7718 16.0148 77.7481 16.0148C76.7247 16.0148 75.9059 15.2369 75.9059 14.1725V7.64253Z" fill="#FF4D6A"/>
<path fill-rule="evenodd" clip-rule="evenodd" d="M8.7717 5.45194C8.76577 5.57405 8.76305 5.69056 8.76305 5.80017L10.362 5.84053C10.368 5.72281 10.3711 5.60737 10.3716 5.49417C10.4164 4.67123 10.6412 3.59303 11.2203 2.82315C11.5019 2.44887 11.8631 2.15177 12.3366 1.9767C12.7178 1.83576 13.2053 1.76157 13.8311 1.82049C13.8694 1.96719 13.906 2.11731 13.9387 2.29026C14.0041 2.63641 14.0218 2.94143 13.9692 3.19836C13.9211 3.43293 13.8126 3.64353 13.5734 3.83129C13.3171 4.0325 12.8629 4.24374 12.0644 4.36085C11.6272 4.42496 11.3248 4.83132 11.3889 5.26847C11.4531 5.70562 11.8594 6.00803 12.2966 5.94392C13.2648 5.80192 14.0144 5.51921 14.5613 5.08984C15.1254 4.64703 15.4197 4.0904 15.5366 3.51928C15.649 2.97054 15.5937 2.4314 15.5109 1.99313C15.456 1.70254 15.3724 1.38816 15.3104 1.15518C15.285 1.05952 15.2632 0.977579 15.2485 0.916642L15.1271 0.411894L14.6167 0.31715C13.5206 0.113685 12.5785 0.181372 11.7817 0.476004C10.9823 0.771594 10.3819 1.27622 9.94173 1.86128C9.79012 2.06281 9.65717 2.27421 9.54075 2.49103C9.02727 1.7419 8.36677 1.31072 7.83309 1.14816C7.41044 1.01942 6.96344 1.25768 6.8347 1.68034C6.70596 2.10299 6.94422 2.54999 7.36688 2.67873C7.68873 2.77677 8.76798 3.44489 8.7717 5.45194Z" fill="#4ED353"/>
</svg>
