<svg width="18" height="18" viewBox="0 0 18 18" fill="none" xmlns="http://www.w3.org/2000/svg">
<path d="M9.30937 13.4086L12.8531 15.6586C13.3102 15.9469 13.8727 15.518 13.7391 14.9906L12.7125 10.9547C12.6847 10.8428 12.6892 10.7254 12.7252 10.6159C12.7613 10.5065 12.8276 10.4094 12.9164 10.336L16.0945 7.68517C16.5094 7.34064 16.2984 6.64455 15.757 6.60939L11.6086 6.3422C11.4954 6.33562 11.3866 6.2962 11.2954 6.22878C11.2043 6.16135 11.1347 6.06883 11.0953 5.96252L9.54843 2.0672C9.50749 1.95464 9.43289 1.85739 9.33478 1.78868C9.23666 1.71996 9.11978 1.68311 9 1.68311C8.88021 1.68311 8.76333 1.71996 8.66521 1.78868C8.5671 1.85739 8.49251 1.95464 8.45156 2.0672L6.90468 5.96252C6.86526 6.06883 6.79572 6.16135 6.70457 6.22878C6.61342 6.2962 6.50459 6.33562 6.3914 6.3422L2.24297 6.60939C1.70156 6.64455 1.49062 7.34064 1.90547 7.68517L5.08359 10.336C5.17242 10.4094 5.23869 10.5065 5.27477 10.6159C5.31084 10.7254 5.31525 10.8428 5.2875 10.9547L4.33828 14.6953C4.17656 15.3281 4.85156 15.8414 5.39297 15.4969L8.69062 13.4086C8.78309 13.3498 8.89041 13.3186 9 13.3186C9.10958 13.3186 9.2169 13.3498 9.30937 13.4086Z" fill="#FF4D6A"/>
</svg>
