<svg width="33" height="19" viewBox="0 0 33 19" fill="none" xmlns="http://www.w3.org/2000/svg">
<rect x="0.5" y="0.5" width="32" height="18" fill="white"/>
<path d="M9.07031 10.1084H7.43994L7.43115 9.3042H8.85498C9.09521 9.3042 9.29883 9.26904 9.46582 9.19873C9.63574 9.12549 9.76465 9.02148 9.85254 8.88672C9.94043 8.74902 9.98438 8.5835 9.98438 8.39014C9.98438 8.17627 9.94336 8.00195 9.86133 7.86719C9.7793 7.73242 9.65332 7.63428 9.4834 7.57275C9.31641 7.51123 9.10254 7.48047 8.8418 7.48047H7.77393V13H6.6709V6.60156H8.8418C9.19336 6.60156 9.50684 6.63525 9.78223 6.70264C10.0605 6.77002 10.2964 6.87549 10.4897 7.01904C10.686 7.15967 10.834 7.33838 10.9336 7.55518C11.0361 7.77197 11.0874 8.02979 11.0874 8.32861C11.0874 8.59229 11.0244 8.83398 10.8984 9.05371C10.7725 9.27051 10.5864 9.44775 10.3403 9.58545C10.0942 9.72314 9.78809 9.80518 9.42188 9.83154L9.07031 10.1084ZM9.02197 13H7.09277L7.58936 12.1255H9.02197C9.271 12.1255 9.479 12.0845 9.646 12.0024C9.81299 11.9175 9.9375 11.8018 10.0195 11.6553C10.1045 11.5059 10.147 11.3315 10.147 11.1323C10.147 10.9243 10.1104 10.7441 10.0371 10.5918C9.96387 10.4365 9.84814 10.3179 9.68994 10.2358C9.53174 10.1509 9.3252 10.1084 9.07031 10.1084H7.83105L7.83984 9.3042H9.45264L9.70312 9.60742C10.0547 9.61914 10.3433 9.69678 10.5688 9.84033C10.7974 9.98389 10.9673 10.1699 11.0786 10.3984C11.1899 10.627 11.2456 10.873 11.2456 11.1367C11.2456 11.5439 11.1562 11.8853 10.9775 12.1606C10.8018 12.436 10.5483 12.6455 10.2173 12.7891C9.88623 12.9297 9.48779 13 9.02197 13ZM16.2954 12.1255V13H12.8984V12.1255H16.2954ZM13.2104 6.60156V13H12.1074V6.60156H13.2104ZM15.8516 9.27344V10.1348H12.8984V9.27344H15.8516ZM16.2734 6.60156V7.48047H12.8984V6.60156H16.2734ZM20.3125 11.3521C20.3125 11.2202 20.292 11.103 20.251 11.0005C20.2129 10.8979 20.144 10.8042 20.0444 10.7192C19.9448 10.6343 19.8042 10.5522 19.6226 10.4731C19.4438 10.3911 19.2153 10.3076 18.937 10.2227C18.6323 10.1289 18.3511 10.0249 18.0933 9.91064C17.8384 9.79346 17.6157 9.65869 17.4253 9.50635C17.2349 9.35107 17.0869 9.17383 16.9814 8.97461C16.876 8.77246 16.8232 8.53955 16.8232 8.27588C16.8232 8.01514 16.8774 7.77783 16.9858 7.56396C17.0972 7.3501 17.2539 7.16553 17.4561 7.01025C17.6611 6.85205 17.9028 6.73047 18.1812 6.64551C18.4595 6.55762 18.7671 6.51367 19.104 6.51367C19.5786 6.51367 19.9873 6.60156 20.3301 6.77734C20.6758 6.95312 20.9409 7.18896 21.1255 7.48486C21.313 7.78076 21.4067 8.10742 21.4067 8.46484H20.3125C20.3125 8.25391 20.2671 8.06787 20.1763 7.90674C20.0884 7.74268 19.9536 7.61377 19.772 7.52002C19.5933 7.42627 19.3662 7.37939 19.0908 7.37939C18.8301 7.37939 18.6133 7.41895 18.4404 7.49805C18.2676 7.57715 18.1387 7.68408 18.0537 7.81885C17.9688 7.95361 17.9263 8.10596 17.9263 8.27588C17.9263 8.396 17.9541 8.50586 18.0098 8.60547C18.0654 8.70215 18.1504 8.79297 18.2646 8.87793C18.3789 8.95996 18.5225 9.0376 18.6953 9.11084C18.8682 9.18408 19.0718 9.25439 19.3062 9.32178C19.6606 9.42725 19.9697 9.54443 20.2334 9.67334C20.4971 9.79932 20.7168 9.94287 20.8926 10.104C21.0684 10.2651 21.2002 10.4482 21.2881 10.6533C21.376 10.8555 21.4199 11.0854 21.4199 11.3433C21.4199 11.6128 21.3657 11.856 21.2573 12.0728C21.1489 12.2866 20.9937 12.4697 20.7915 12.6221C20.5923 12.7715 20.3521 12.8872 20.0708 12.9692C19.7925 13.0483 19.4819 13.0879 19.1392 13.0879C18.8315 13.0879 18.5283 13.0469 18.2295 12.9648C17.9336 12.8828 17.6641 12.7583 17.4209 12.5913C17.1777 12.4214 16.9844 12.2104 16.8408 11.9585C16.6973 11.7036 16.6255 11.4062 16.6255 11.0664H17.7285C17.7285 11.2744 17.7637 11.4517 17.834 11.5981C17.9072 11.7446 18.0083 11.8647 18.1372 11.9585C18.2661 12.0493 18.4155 12.1167 18.5854 12.1606C18.7583 12.2046 18.9429 12.2266 19.1392 12.2266C19.397 12.2266 19.6123 12.1899 19.7852 12.1167C19.9609 12.0435 20.0928 11.9409 20.1807 11.8091C20.2686 11.6772 20.3125 11.5249 20.3125 11.3521ZM24.7778 6.60156V13H23.6836V6.60156H24.7778ZM26.7861 6.60156V7.48047H21.6929V6.60156H26.7861Z" fill="#666666"/>
<rect x="0.5" y="0.5" width="32" height="18" stroke="#DDDDDD"/>
</svg>
