<svg width="45" height="19" viewBox="0 0 45 19" fill="none" xmlns="http://www.w3.org/2000/svg">
<rect x="0.5" y="0.5" width="44" height="18" fill="white"/>
<path d="M11.5004 9.652C10.3124 9.229 9.51141 8.203 9.51141 7.096V6.079H8.77341V7.078C8.77341 8.329 7.99041 9.409 6.75741 9.85L7.14441 10.435C8.10741 10.075 8.82741 9.337 9.16041 8.383C9.52041 9.229 10.2224 9.904 11.1314 10.237L11.5004 9.652ZM8.79141 10.984H8.05341V13.486H13.4084V12.883H8.79141V10.984ZM13.0574 8.068V5.584H12.3194V11.551H13.0574V8.68H14.2454V8.068H13.0574ZM17.7027 7.033H19.6017V6.421H15.0927V7.033H16.9647V8.059C16.9647 9.454 15.9837 10.975 14.8227 11.524L15.2547 12.118C16.1727 11.65 16.9647 10.633 17.3337 9.454C17.7207 10.561 18.5127 11.488 19.4487 11.92L19.8627 11.326C18.6747 10.822 17.7027 9.427 17.7027 8.059V7.033ZM20.6907 5.602V13.666H21.4287V5.602H20.6907ZM27.784 9.535C26.596 9.139 25.759 8.158 25.759 7.078V6.754H27.586V6.16H23.158V6.754H25.003V7.078C25.003 8.212 24.184 9.265 22.96 9.697L23.347 10.273C24.301 9.922 25.048 9.202 25.39 8.284C25.759 9.13 26.497 9.796 27.424 10.12L27.784 9.535ZM24.076 11.497H28.738V13.666H29.476V10.903H24.076V11.497ZM28.738 5.593V10.48H29.476V5.593H28.738ZM37.7393 8.248C36.2993 8.05 34.9043 7.15 34.9043 6.079V5.719H34.1483V6.079C34.1483 7.15 32.7623 8.05 31.3223 8.248L31.6013 8.833C32.8343 8.626 34.0223 7.987 34.5263 7.069C35.0393 7.987 36.2273 8.626 37.4603 8.833L37.7393 8.248ZM34.5263 13.09C33.2483 13.09 32.5103 12.793 32.5103 12.262C32.5103 11.731 33.2483 11.434 34.5263 11.434C35.8043 11.434 36.5423 11.731 36.5423 12.262C36.5423 12.793 35.8043 13.09 34.5263 13.09ZM34.5263 10.867C32.7983 10.867 31.7633 11.362 31.7633 12.262C31.7633 13.162 32.7983 13.657 34.5263 13.657C36.2543 13.657 37.2893 13.162 37.2893 12.262C37.2893 11.362 36.2543 10.867 34.5263 10.867ZM34.8953 9.598V8.41H34.1573V9.598H30.8813V10.192H38.1803V9.598H34.8953Z" fill="#666666"/>
<rect x="0.5" y="0.5" width="44" height="18" stroke="#DDDDDD"/>
</svg>
