<svg width="24" height="24" viewBox="0 0 24 24" fill="none" xmlns="http://www.w3.org/2000/svg">
<path d="M12.0634 3C7.63671 3 5.29767 4.87632 4.99538 5.17958C4.99538 5.17958 3.01439 4.49088 2.26503 5.74111C1.51372 6.99134 2.53601 8.12808 3.14939 8.17895C3.14939 8.17895 2.3071 11.0854 2.26503 12.9617C2.22101 14.838 2.58982 16.3993 4.60799 18.036C6.17811 19.3097 8.94563 20.0375 11.9949 20.0375C15.0559 20.0375 17.4781 19.4466 19.3916 18.036C21.579 16.4238 21.7776 14.838 21.7355 12.9617C21.6954 11.0854 20.8512 8.17895 20.8512 8.17895C21.4665 8.12808 22.4849 6.99134 21.7355 5.74111C20.9862 4.49088 19.0052 5.17958 19.0052 5.17958C18.7048 4.87632 16.3648 3 11.9391 3" fill="white"/>
<path d="M12.0634 3C7.63671 3 5.29767 4.87632 4.99538 5.17958C4.99538 5.17958 3.01439 4.49088 2.26503 5.74111C1.51372 6.99134 2.53601 8.12808 3.14939 8.17895C3.14939 8.17895 2.3071 11.0854 2.26503 12.9617C2.22101 14.838 2.58982 16.3993 4.60799 18.036C6.17811 19.3097 8.94563 20.0375 11.9949 20.0375C15.0559 20.0375 17.4781 19.4466 19.3916 18.036C21.579 16.4238 21.7776 14.838 21.7355 12.9617C21.6954 11.0854 20.8512 8.17895 20.8512 8.17895C21.4665 8.12808 22.4849 6.99134 21.7355 5.74111C20.9862 4.49088 19.0052 5.17958 19.0052 5.17958C18.7048 4.87632 16.3648 3 11.9391 3" stroke="#999999" stroke-width="1.5"/>
<path d="M12.1023 18.2326C10.0998 18.2326 9.45802 17.3805 9.3915 17.2827C9.28487 17.1262 9.32497 16.9139 9.48052 16.8072C9.63411 16.7016 9.84444 16.7378 9.95302 16.8904C9.96868 16.91 10.4793 17.5468 12.1023 17.5468C13.4347 17.5468 14.049 16.8884 14.0754 16.8601C14.2026 16.7212 14.4178 16.7084 14.5577 16.8346C14.6976 16.9608 14.7113 17.1741 14.5871 17.315C14.5528 17.3531 13.7604 18.2326 12.1023 18.2326Z" fill="#999999"/>
<path d="M8.32518 10.8594C8.55155 10.8594 8.73507 10.6759 8.73507 10.4495C8.73507 10.2231 8.55155 10.0396 8.32518 10.0396C8.0988 10.0396 7.91528 10.2231 7.91528 10.4495C7.91528 10.6759 8.0988 10.8594 8.32518 10.8594Z" fill="#999999"/>
<path d="M8.32625 11.0541C7.99168 11.0541 7.71973 10.7831 7.71973 10.4505C7.71973 10.1159 7.99168 9.843 8.32625 9.843C8.65984 9.843 8.93082 10.1159 8.93082 10.4505C8.93082 10.7831 8.65984 11.0541 8.32625 11.0541ZM8.32625 10.2343C8.20788 10.2343 8.11103 10.3312 8.11103 10.4505C8.11103 10.5679 8.20788 10.6628 8.32625 10.6628C8.44364 10.6628 8.53952 10.5679 8.53952 10.4505C8.53952 10.3312 8.44364 10.2343 8.32625 10.2343Z" fill="#999999"/>
<path d="M12.4937 12.7817C12.4066 12.7817 12.3205 12.7494 12.254 12.6839C12.1581 12.59 12.074 12.5029 12.0006 12.4217C11.9087 12.5244 11.8147 12.6183 11.7404 12.6878C11.6034 12.8159 11.3863 12.811 11.2571 12.6741C11.127 12.5362 11.1329 12.32 11.2708 12.1898C11.445 12.0245 11.6308 11.8093 11.6602 11.7389C11.7003 11.5951 11.8284 11.4982 11.9771 11.4933C12.162 11.4933 12.2599 11.5863 12.3098 11.7271V11.7261C12.3137 11.7261 12.3997 11.868 12.7333 12.1947C12.8683 12.3278 12.8703 12.544 12.7382 12.679C12.6717 12.7475 12.5827 12.7817 12.4937 12.7817Z" fill="#999999"/>
<path d="M11.4774 11.1627C11.3835 11.3055 11.7024 11.9111 12.0008 11.9111C12.3011 11.9111 12.6005 11.2938 12.5261 11.1627C12.4518 11.0316 11.5635 11.0365 11.4774 11.1627Z" fill="#999999"/>
<path d="M12.0005 12.1067C11.6709 12.1067 11.4449 11.735 11.3833 11.6205C11.3089 11.4826 11.2003 11.2263 11.3138 11.0551C11.349 11.0022 11.44 10.8711 12.0133 10.8711C12.5855 10.8711 12.6628 11.0081 12.6961 11.0658C12.8017 11.2517 12.653 11.5471 12.5836 11.6655C12.5073 11.7985 12.296 12.1067 12.0005 12.1067ZM11.6513 11.2928C11.6787 11.3485 11.7511 11.5031 11.8587 11.6185C11.9301 11.6948 11.981 11.7144 12.0005 11.7144C12.0172 11.7144 12.0622 11.6978 12.1238 11.6332C12.2275 11.5246 12.3009 11.3759 12.3283 11.2849C12.1923 11.2605 11.7804 11.2654 11.6513 11.2928Z" fill="#999999"/>
<path d="M15.6738 10.8594C15.9002 10.8594 16.0837 10.6759 16.0837 10.4495C16.0837 10.2231 15.9002 10.0396 15.6738 10.0396C15.4474 10.0396 15.2639 10.2231 15.2639 10.4495C15.2639 10.6759 15.4474 10.8594 15.6738 10.8594Z" fill="#999999"/>
<path d="M15.6729 11.0541C15.3393 11.0541 15.0684 10.7831 15.0684 10.4505C15.0684 10.1159 15.3393 9.84299 15.6729 9.84299C16.0075 9.84299 16.2795 10.1159 16.2795 10.4505C16.2795 10.7831 16.0075 11.0541 15.6729 11.0541ZM15.6729 10.2343C15.5555 10.2343 15.4597 10.3311 15.4597 10.4505C15.4597 10.5698 15.5536 10.6628 15.6729 10.6628C15.7913 10.6628 15.8881 10.5679 15.8881 10.4505C15.8881 10.3311 15.7913 10.2343 15.6729 10.2343Z" fill="#999999"/>
</svg>
